<svg aria-hidden="true" style="position: absolute; width: 0; height: 0; overflow: hidden;" version="1.1" xmlns="http://www.w3.org/2000/svg" xmlns:xlink="http://www.w3.org/1999/xlink">
  <defs>
    <symbol id="grenade" viewBox="0 0 512 512">
      <path d="m379.75 216.21c8.729-3.096 15-11.433 15-21.21 0-12.407-10.094-22.5-22.5-22.5h-22.5v-52.985c29.555-3.705 52.5-28.972 52.5-59.515 0-33.084-26.916-60-60-60-24.442 0-46.55 15.167-55.621 37.5h-64.379c-1.989 0-3.896.79-5.304 2.197l-87.425 87.426c-12.75 12.749-19.771 29.7-19.771 47.729v179.648c0 12.407 10.094 22.5 22.5 22.5s22.5-10.093 22.5-22.5v-174.5c0-12.407 10.094-22.5 22.5-22.5h37.5v15h-22.5c-12.406 0-22.5 10.093-22.5 22.5 0 9.777 6.271 18.114 15 21.21v252.08c-8.729 3.096-15 11.432-15 21.21 0 12.407 10.094 22.5 22.5 22.5h180c12.406 0 22.5-10.093 22.5-22.5 0-9.777-6.271-18.114-15-21.21zm-180 250.79v-30h165v30zm165-249.5v144.5h-165v-144.5zm0 159.5v45h-165v-45zm-186.966-234.5 60-60h96.967v60zm164.466-127.5c24.813 0 45 20.187 45 45 0 22.257-16.246 40.781-37.5 44.363v-23.153c8.729-3.096 15-11.433 15-21.21 0-12.407-10.094-22.5-22.5-22.5h-38.959c7.927-13.62 22.759-22.5 38.959-22.5zm-202.5 339.5c0 4.135-3.364 7.5-7.5 7.5s-7.5-3.364-7.5-7.5v-179.647c0-14.023 5.461-27.207 15.378-37.123l85.228-85.23h116.894c4.136 0 7.5 3.364 7.5 7.5s-3.364 7.5-7.5 7.5h-107.573c-1.989 0-3.896.79-5.304 2.197l-78.64 78.64c-7.083 7.083-10.983 16.5-10.983 26.516zm52.5-167h30c4.143 0 7.5-3.358 7.5-7.5v-22.5h105v15h-82.5c-4.143 0-7.5 3.358-7.5 7.5s3.357 7.5 7.5 7.5h120c4.136 0 7.5 3.364 7.5 7.5s-3.364 7.5-7.5 7.5h-180c-4.136 0-7.5-3.364-7.5-7.5s3.364-7.5 7.5-7.5zm180 309.5h-180c-4.136 0-7.5-3.364-7.5-7.5s3.364-7.5 7.5-7.5h180c4.136 0 7.5 3.364 7.5 7.5s-3.364 7.5-7.5 7.5z"/>
<!--      <path d="m383.593 203.416v-23.416c0-4.142-3.358-7.5-7.5-7.5h-22.5v-52.986c29.555-3.705 52.5-28.972 52.5-59.514 0-33.084-26.916-60-60-60-24.442 0-46.55 15.167-55.622 37.5h-64.378c-1.989 0-3.897.79-5.303 2.197l-127.103 127.102c-24.082 24.082-37.344 56.1-37.344 90.156v97.545c0 12.407 10.093 22.5 22.5 22.5s22.5-10.093 22.5-22.5v-97.544c0-22.037 8.582-42.754 24.164-58.336l25.742-25.742c9.916-9.916 23.1-15.377 37.123-15.377h30.221v15h-22.5c-4.142 0-7.5 3.358-7.5 7.5v23.157c-45.438 31.825-72.437 83.516-72.437 139.093 0 93.601 76.149 169.75 169.75 169.75s169.75-76.149 169.75-169.75c.001-55.397-26.859-106.992-72.063-138.835zm-37.5-188.416c24.813 0 45 20.187 45 45 0 22.257-16.246 40.78-37.5 44.363v-23.261c8.418-3.032 14.536-10.74 14.974-20.023.293-6.217-1.907-12.115-6.193-16.608-4.226-4.43-10.16-6.97-16.281-6.97h-38.96c7.928-13.621 22.76-22.501 38.96-22.501zm-231.193 173.013c-18.416 18.415-28.557 42.899-28.557 68.943v97.544c0 4.135-3.365 7.5-7.5 7.5-4.136 0-7.5-3.364-7.5-7.5v-97.544c0-30.05 11.702-58.301 32.95-79.55l124.907-124.906h116.894c2.07 0 3.998.825 5.428 2.324 1.428 1.497 2.161 3.468 2.063 5.548-.185 3.93-3.736 7.127-7.915 7.127h-107.15c-1.989 0-3.897.79-5.303 2.197zm66.348-45.135 60.378-60.378h96.967v60h-150.22c-2.397 0-4.773.133-7.125.378zm104.659 354.122c-85.33 0-154.75-69.42-154.75-154.75 0-51.896 25.83-100.079 69.094-128.892 2.088-1.391 3.343-3.733 3.343-6.242v-19.616h22.5c4.142 0 7.5-3.358 7.5-7.5v-22.5h105v15h-82.5c-4.142 0-7.5 3.358-7.5 7.5s3.358 7.5 7.5 7.5h112.5v19.861c0 2.501 1.247 4.838 3.326 6.231 43.042 28.834 68.738 76.931 68.738 128.658-.001 85.33-69.422 154.75-154.751 154.75z"/>-->
    </symbol>
    <symbol id="skull" viewBox="0 0 512 512">
      <path d="M256.836 0h-15.032C140.212 0 58.592 75.416 58.592 168.14v95.772c0 31.388 19.532 59.532 50.78 69.004v60.468c0 59.784 108.424 106.612 128.54 106.612h22.816c20.112 0 129.896-46.828 129.896-106.612v-60.468c31.248-9.468 50.78-37.62 50.78-69.004V168.14C441.408 75.416 358.428 0 256.836 0zm-7.516 269.48c17.324 0 26.84 44.172 26.84 58.812 0 14.028-8.052 15.916-15.932 15.916-1.548 0-3.216-.064-4.976-.136a154.08 154.08 0 00-11.852 0c-1.764.076-3.428.136-4.984.136-3.748 0-8.016-.352-11.232-2.972-3.208-2.608-4.7-6.724-4.7-12.944 0-14.64 9.516-58.812 26.836-58.812zm-109.712-50.612c6.84-8.248 16.6-13.212 27.492-13.948l17.244-1.176c23.04-1.524 41.04 10.32 41.04 26.336 0 15.328-15.408 35.172-35.072 45.176l-14.96 7.604c-5.276 2.688-10.58 4.048-15.744 4.048-14.584 0-25.264-10.6-27.236-27.004l-1.368-11.428c-1.292-10.836 1.76-21.348 8.604-29.608zM365.32 344.72l-37.196 12.624v21.608c0 .544-.444 1.108-.556 1.624-.872 18.8-17.732 29.58-45.88 29.58h-65.944c-22.008 0-43.868-10.756-43.868-31.204v-21.608l-37.792-12.624c-4.088-1.376-6.396-5.8-5.02-9.892 1.368-4.088 5.756-6.3 9.836-4.916l43.096 14.412c3.184 1.072 5.504 4.052 5.504 7.412v27.224c0 4.668 2.812 8.108 7.108 10.564.54-3.788 4.172-6.712 8.108-6.712 4.312 0 8.22 3.5 8.22 7.812v3.496c0 .236 3 .416 4.804.416h10.82v-3.916c0-4.312 3.5-7.812 7.812-7.812s7.812 3.5 7.812 7.812v3.916h15.624v-3.916c0-4.312 3.5-7.812 7.812-7.812s7.812 3.5 7.812 7.812v3.916h8.252c2.032 0 3.464-.128 7.372-.32v-3.592c0-4.312 3.152-7.812 7.464-7.812 4.236 0 7.488 3.372 7.616 7.58 4.464-2.328 7.928-5.908 7.928-11.428 0-.48.424-.948.424-1.408V351.74c0-3.36 1.752-6.34 4.936-7.412l42.716-14.412c4.096-1.384 8.62.828 9.988 4.916 1.392 4.084-.716 8.512-4.808 9.888zm7.108-96.248l-1.368 11.424c-1.964 16.408-12.652 27.008-27.232 27.008-5.168 0-10.464-1.36-15.748-4.048l-14.956-7.604c-19.668-10.004-35.072-29.844-35.072-45.176 0-16.016 18.052-27.848 41.036-26.336l17.248 1.176c10.888.74 20.648 5.7 27.492 13.952 6.848 8.26 9.9 18.772 8.6 29.604z"/>
    </symbol>
  </defs>
</svg>
