<svg aria-hidden="true" style="position: absolute; width: 0; height: 0; overflow: hidden;" version="1.1" xmlns="http://www.w3.org/2000/svg" xmlns:xlink="http://www.w3.org/1999/xlink">
  <defs>
    <symbol id="grenade" viewBox="0 0 512 512">
      <path d="m379.75 216.21c8.729-3.096 15-11.433 15-21.21 0-12.407-10.094-22.5-22.5-22.5h-22.5v-52.985c29.555-3.705 52.5-28.972 52.5-59.515 0-33.084-26.916-60-60-60-24.442 0-46.55 15.167-55.621 37.5h-64.379c-1.989 0-3.896.79-5.304 2.197l-87.425 87.426c-12.75 12.749-19.771 29.7-19.771 47.729v179.648c0 12.407 10.094 22.5 22.5 22.5s22.5-10.093 22.5-22.5v-174.5c0-12.407 10.094-22.5 22.5-22.5h37.5v15h-22.5c-12.406 0-22.5 10.093-22.5 22.5 0 9.777 6.271 18.114 15 21.21v252.08c-8.729 3.096-15 11.432-15 21.21 0 12.407 10.094 22.5 22.5 22.5h180c12.406 0 22.5-10.093 22.5-22.5 0-9.777-6.271-18.114-15-21.21zm-180 250.79v-30h165v30zm165-249.5v144.5h-165v-144.5zm0 159.5v45h-165v-45zm-186.966-234.5 60-60h96.967v60zm164.466-127.5c24.813 0 45 20.187 45 45 0 22.257-16.246 40.781-37.5 44.363v-23.153c8.729-3.096 15-11.433 15-21.21 0-12.407-10.094-22.5-22.5-22.5h-38.959c7.927-13.62 22.759-22.5 38.959-22.5zm-202.5 339.5c0 4.135-3.364 7.5-7.5 7.5s-7.5-3.364-7.5-7.5v-179.647c0-14.023 5.461-27.207 15.378-37.123l85.228-85.23h116.894c4.136 0 7.5 3.364 7.5 7.5s-3.364 7.5-7.5 7.5h-107.573c-1.989 0-3.896.79-5.304 2.197l-78.64 78.64c-7.083 7.083-10.983 16.5-10.983 26.516zm52.5-167h30c4.143 0 7.5-3.358 7.5-7.5v-22.5h105v15h-82.5c-4.143 0-7.5 3.358-7.5 7.5s3.357 7.5 7.5 7.5h120c4.136 0 7.5 3.364 7.5 7.5s-3.364 7.5-7.5 7.5h-180c-4.136 0-7.5-3.364-7.5-7.5s3.364-7.5 7.5-7.5zm180 309.5h-180c-4.136 0-7.5-3.364-7.5-7.5s3.364-7.5 7.5-7.5h180c4.136 0 7.5 3.364 7.5 7.5s-3.364 7.5-7.5 7.5z"/>
    </symbol>
    <symbol id="weapon4" viewBox="0 0 512 512">
      <path fill="#fff" d="M421.938 24.406c-5.65.336-10.627 1.725-11.875 8.907l15.593 18.562-237.03 193.28c-.01 0-.022.004-.032 0-11.304-.278-16.79 7.678-18.563 11.5-9.31 20.08-15.027 41.64-26.905 61.97-36.13 33.16-81.964 64.002-110.75 98.313 17.28 23.824 40.84 44.52 61.25 66.78 8.26-.503 12.864-9.733 18.906-15.562 26.738-50.49 46.192-96.418 77.532-143.22 11.856-7.617 26.222-15.02 32.782-23.092a9.5 9.5 0 002.28.594c5.565.765 9.94 2.26 13.126 4.468 2.783 1.93 4.912 4.473 6.594 8.72-4.9 28.004 3.67 42.852 7.25 56.593a9.5 9.5 0 0011.375 6.874l44.5-10.406a9.5 9.5 0 006-14.094c-7.66-12.86-11.664-31-15.095-50.625 17.508-5.41 28.902-18.48 39.125-28.908a4 4 0 00.938-4l-8-25.156 16.187-13.47a9.5 9.5 0 001.97-2.28c33.177 23.91 67.84 45.264 107.717 57.688l9.282-24.5c-37.892-12.75-83.78-38.932-111.844-65.72l5.688-5.936 98.187-102.844 5.844-6.125-5.408-6.5-.625-.782L482.781 50l-8.53-8.53-18.53 15.968-33.783-33.032zM325.563 162.47l6.03 8.624-27 23a9.5 9.5 0 00-.03.03l-76.282 64.782-7.78-8.594 105.063-87.843zm-1.25 88.936l6.28 19.78c-9.665 9.944-19.265 20.217-33.093 24.814-1.076-6.458-2.143-13.02-3.28-19.563l30.092-25.03z"/>
    </symbol>
    <symbol id="pistol" viewBox="0 0 512 512">
      <path fill="#fff" d="M79.238 115.768l-28.51 67.863h406.15l-.273-67.862h-263.83v55.605h-15v-55.605h-16.68v55.605H146.1v-55.605h-17.434v55.605h-15v-55.605H79.238zm387.834 15.96v40.66h18.688v-40.66h-18.688zM56.768 198.63l20.566 32.015L28.894 406.5l101.68 7.174 21.54-97.996h115.74l14.664-80.252 174.55-3.873-.13-32.922H56.767zm206.672 37.22l-11.17 61.142h-96.05l12.98-59.05 12.53-.278-2.224 35.5 14.262 13.576 1.003-33.65 24.69-16.264 43.98-.976z"/>
    </symbol>
    <symbol id="grenade2" viewBox="0 0 512 512">
      <path d="m383.593 203.416v-23.416c0-4.142-3.358-7.5-7.5-7.5h-22.5v-52.986c29.555-3.705 52.5-28.972 52.5-59.514 0-33.084-26.916-60-60-60-24.442 0-46.55 15.167-55.622 37.5h-64.378c-1.989 0-3.897.79-5.303 2.197l-127.103 127.102c-24.082 24.082-37.344 56.1-37.344 90.156v97.545c0 12.407 10.093 22.5 22.5 22.5s22.5-10.093 22.5-22.5v-97.544c0-22.037 8.582-42.754 24.164-58.336l25.742-25.742c9.916-9.916 23.1-15.377 37.123-15.377h30.221v15h-22.5c-4.142 0-7.5 3.358-7.5 7.5v23.157c-45.438 31.825-72.437 83.516-72.437 139.093 0 93.601 76.149 169.75 169.75 169.75s169.75-76.149 169.75-169.75c.001-55.397-26.859-106.992-72.063-138.835zm-37.5-188.416c24.813 0 45 20.187 45 45 0 22.257-16.246 40.78-37.5 44.363v-23.261c8.418-3.032 14.536-10.74 14.974-20.023.293-6.217-1.907-12.115-6.193-16.608-4.226-4.43-10.16-6.97-16.281-6.97h-38.96c7.928-13.621 22.76-22.501 38.96-22.501zm-231.193 173.013c-18.416 18.415-28.557 42.899-28.557 68.943v97.544c0 4.135-3.365 7.5-7.5 7.5-4.136 0-7.5-3.364-7.5-7.5v-97.544c0-30.05 11.702-58.301 32.95-79.55l124.907-124.906h116.894c2.07 0 3.998.825 5.428 2.324 1.428 1.497 2.161 3.468 2.063 5.548-.185 3.93-3.736 7.127-7.915 7.127h-107.15c-1.989 0-3.897.79-5.303 2.197zm66.348-45.135 60.378-60.378h96.967v60h-150.22c-2.397 0-4.773.133-7.125.378zm104.659 354.122c-85.33 0-154.75-69.42-154.75-154.75 0-51.896 25.83-100.079 69.094-128.892 2.088-1.391 3.343-3.733 3.343-6.242v-19.616h22.5c4.142 0 7.5-3.358 7.5-7.5v-22.5h105v15h-82.5c-4.142 0-7.5 3.358-7.5 7.5s3.358 7.5 7.5 7.5h112.5v19.861c0 2.501 1.247 4.838 3.326 6.231 43.042 28.834 68.738 76.931 68.738 128.658-.001 85.33-69.422 154.75-154.751 154.75z"/>
    </symbol>
  </defs>
</svg>
